<svg aria-hidden="true" style="position: absolute; width: 0; height: 0; overflow: hidden;" version="1.1" xmlns="http://www.w3.org/2000/svg" xmlns:xlink="http://www.w3.org/1999/xlink">
<defs>
<symbol id="icon-Facebook" viewBox="0 0 32 32">
<path d="M29.333 16.405c0-7.409-5.969-13.415-13.333-13.415s-13.333 6.006-13.333 13.415c0 6.696 4.876 12.245 11.25 13.252v-9.374h-3.385v-3.878h3.385v-2.955c0-3.362 1.991-5.219 5.036-5.219 1.459 0 2.985 0.262 2.985 0.262v3.301h-1.681c-1.656 0-2.173 1.034-2.173 2.095v2.516h3.698l-0.591 3.878h-3.107v9.374c6.374-1.006 11.25-6.556 11.25-13.252z"></path>
</symbol>
<symbol id="icon-Instagram" viewBox="0 0 32 32">
<path d="M15.998 6.161c3.206 0 3.585 0.014 4.846 0.071 1.172 0.052 1.804 0.248 2.226 0.412 0.558 0.216 0.961 0.478 1.378 0.895 0.422 0.422 0.679 0.82 0.9 1.378 0.164 0.422 0.361 1.059 0.412 2.226 0.056 1.266 0.071 1.645 0.071 4.847s-0.014 3.585-0.071 4.847c-0.052 1.172-0.248 1.804-0.412 2.227-0.216 0.558-0.478 0.961-0.895 1.377-0.422 0.422-0.82 0.679-1.378 0.9-0.422 0.164-1.060 0.361-2.226 0.412-1.266 0.056-1.645 0.071-4.847 0.071s-3.585-0.014-4.847-0.071c-1.172-0.052-1.804-0.248-2.226-0.412-0.558-0.216-0.961-0.478-1.378-0.895-0.422-0.422-0.679-0.82-0.9-1.378-0.164-0.422-0.361-1.060-0.412-2.226-0.056-1.266-0.071-1.645-0.071-4.847s0.014-3.585 0.071-4.847c0.052-1.172 0.248-1.804 0.412-2.226 0.216-0.558 0.478-0.961 0.895-1.378 0.422-0.422 0.82-0.679 1.378-0.9 0.422-0.164 1.059-0.361 2.226-0.412 1.261-0.056 1.641-0.071 4.847-0.071h0.001zM15.998 4.001c-3.258 0-3.665 0.014-4.945 0.071-1.275 0.056-2.151 0.262-2.91 0.558-0.792 0.309-1.462 0.717-2.127 1.387-0.67 0.666-1.078 1.336-1.387 2.123-0.295 0.764-0.502 1.636-0.558 2.91-0.056 1.285-0.071 1.692-0.071 4.949s0.014 3.665 0.071 4.945c0.056 1.275 0.262 2.151 0.558 2.91 0.31 0.792 0.717 1.462 1.387 2.127 0.665 0.665 1.336 1.078 2.123 1.383 0.764 0.295 1.636 0.502 2.91 0.558 1.279 0.056 1.687 0.071 4.945 0.071s3.666-0.014 4.945-0.071c1.275-0.056 2.151-0.262 2.91-0.558 0.787-0.305 1.458-0.717 2.123-1.383s1.078-1.336 1.383-2.123c0.295-0.764 0.502-1.635 0.558-2.91 0.056-1.279 0.071-1.687 0.071-4.945s-0.014-3.665-0.071-4.945c-0.056-1.275-0.262-2.151-0.558-2.91-0.295-0.797-0.703-1.467-1.373-2.133-0.665-0.665-1.336-1.078-2.123-1.383-0.764-0.295-1.635-0.502-2.91-0.558-1.284-0.061-1.692-0.075-4.949-0.075l-0.001 0.001z"></path>
<path d="M15.998 9.836c-3.402 0-6.163 2.76-6.163 6.163s2.76 6.163 6.163 6.163c3.403 0 6.163-2.76 6.163-6.163s-2.76-6.163-6.163-6.163zM15.998 19.997c-2.208 0-3.998-1.79-3.998-3.998s1.79-3.998 3.998-3.998c2.208 0 3.998 1.79 3.998 3.998s-1.79 3.998-3.998 3.998z"></path>
<path d="M23.843 9.592c0 0.795-0.644 1.439-1.439 1.439s-1.439-0.644-1.439-1.439 0.644-1.439 1.439-1.439c0.795 0 1.439 0.644 1.439 1.439z"></path>
</symbol>
<symbol id="icon-Youtube" viewBox="0 0 32 32">
<path d="M28.79 9.604c-0.152-0.563-0.449-1.077-0.861-1.49s-0.925-0.711-1.489-0.864c-2.088-0.573-10.441-0.583-10.441-0.583s-8.352-0.009-10.441 0.539c-0.563 0.16-1.075 0.462-1.487 0.878s-0.711 0.929-0.867 1.493c-0.551 2.088-0.556 6.419-0.556 6.419s-0.005 4.352 0.541 6.419c0.307 1.143 1.207 2.045 2.351 2.353 2.109 0.573 10.44 0.583 10.44 0.583s8.353 0.009 10.441-0.537c0.563-0.153 1.077-0.45 1.49-0.862s0.712-0.925 0.866-1.488c0.552-2.087 0.556-6.416 0.556-6.416s0.027-4.353-0.543-6.441zM13.328 20.007l0.007-8 6.943 4.007-6.949 3.993z"></path>
</symbol>
<symbol id="icon-Company-Logo" viewBox="0 0 75 32">
<path d="M8.474 8.269c4.382-0.409 8.264 2.814 8.668 7.196s-2.823 8.261-7.205 8.661c-4.376 0.399-8.248-2.822-8.652-7.198s2.814-8.251 7.189-8.659zM10.063 23.283c3.912-0.47 6.701-4.023 6.229-7.934s-4.027-6.698-7.938-6.224c-3.907 0.474-6.692 4.025-6.22 7.932s4.021 6.694 7.929 6.225z"></path>
<path d="M12.33 12.054l0.916-0.006c0.018 2.645 0.019 5.29 0.004 7.936l-0.948 0.012-0.001-4.97-0.004-1.361c-0.529 1.005-1.13 1.97-1.703 2.951-0.363 0.621-0.7 1.334-1.149 1.893-0.107 0.039-0.223 0.042-0.335 0.017-0.036-0.009-0.113-0.037-0.141-0.059-0.242-0.193-2.52-4.195-2.884-4.802 0.093 0.72 0.035 1.505 0.034 2.231l-0.003 4.081-0.969 0.003c0.030-2.641-0.017-5.284 0.008-7.925l1.055 0.006c0.469 0.839 0.973 1.66 1.459 2.49 0.517 0.881 1.021 1.773 1.57 2.634 0.559-1.021 1.184-2.010 1.785-3.007 0.426-0.706 0.828-1.45 1.305-2.122z"></path>
<path d="M60.855 13.939c0.187-0.013 0.379-0.018 0.566-0.014 0.699 0.012 1.413 0.386 1.891 0.881 0.596 0.617 0.873 1.478 0.853 2.327-0.020 0.864-0.344 1.685-0.98 2.278-0.564 0.525-1.286 0.806-2.058 0.777-0.885-0.033-1.471-0.406-2.064-1.039-0.023 0.362-0.016 0.729-0.020 1.092 0.004 0.721 0.003 1.443-0.003 2.164-0.336 0.033-0.675 0.030-1.011-0.009 0.055-1.117 0.006-2.261 0.007-3.381 0-1.666 0.026-3.336-0.011-5.001l1.001-0.004c-0.020 0.372-0.015 0.747-0.020 1.119 0.542-0.677 0.994-1.003 1.85-1.191zM61.288 19.294c0.622-0.117 1.104-0.37 1.469-0.907 0.358-0.534 0.486-1.19 0.356-1.819-0.111-0.561-0.444-1.091-0.932-1.398-0.385-0.241-0.801-0.308-1.245-0.295-0.617 0.117-1.116 0.336-1.486 0.874-0.348 0.506-0.498 1.227-0.381 1.829 0.112 0.578 0.454 1.086 0.95 1.404 0.395 0.248 0.812 0.32 1.269 0.312z"></path>
<path d="M42.182 11.429c0.163 0.168 0.214 0.61 0.311 0.847-1.050 0.441-2.572 0.35-3.417 1.157-0.505 0.483-0.626 1.15-0.636 1.815 0.452-0.558 0.947-1.010 1.688-1.134 0.748-0.125 1.542 0.020 2.156 0.477 0.66 0.491 1.027 1.203 1.137 2.009 0.126 0.927-0.104 1.8-0.673 2.54-0.412 0.457-0.891 0.795-1.494 0.942-0.764 0.187-1.636 0.090-2.309-0.327-0.768-0.477-1.21-1.264-1.401-2.13-0.286-1.294-0.23-3.227 0.516-4.375 0.658-1.013 1.651-1.214 2.754-1.476 0.458-0.109 0.91-0.243 1.369-0.344zM40.436 19.3c0.65-0.096 1.134-0.252 1.538-0.811 0.396-0.548 0.525-1.239 0.402-1.897-0.099-0.531-0.379-1.017-0.835-1.318-0.279-0.185-0.603-0.29-0.938-0.306-0.633 0.071-1.153 0.202-1.574 0.724-0.395 0.49-0.564 1.152-0.477 1.773 0.080 0.566 0.389 1.111 0.854 1.449 0.315 0.228 0.652 0.328 1.031 0.387z"></path>
<path d="M27.954 11.832c0.37-0.037 0.754-0.019 1.126-0.022-0.050 2.722 0.010 5.452-0.006 8.175l-0.98-0.010 0.002-4.815c-0.003-0.552-0.014-1.104 0.020-1.655-0.903 1.668-1.718 3.41-2.708 5.028l-0.637-0.003c-0.975-1.598-1.786-3.319-2.687-4.961 0.035 0.753 0.011 1.517 0.012 2.271l0.002 4.146c-0.327-0.009-0.652 0.013-0.979-0.003l0-4.96c0.001-1.066-0.020-2.139 0.038-3.204l1.091 0.001c0.31 0.532 0.573 1.101 0.855 1.649 0.653 1.27 1.3 2.554 2.005 3.796 1.036-1.756 1.856-3.649 2.846-5.433z"></path>
<path d="M32.996 13.941c0.15-0.008 0.299-0.014 0.449-0.017 0.785-0.013 1.567 0.201 2.132 0.77 0.757 0.761 0.832 1.719 0.832 2.732-1.633 0.021-3.269-0.001-4.903 0.006 0.050 0.27 0.101 0.528 0.229 0.774 0.255 0.492 0.699 0.861 1.229 1.022 0.635 0.192 1.274 0.080 1.845-0.235 0.192-0.13 0.367-0.283 0.545-0.43 0.257 0.146 0.516 0.269 0.787 0.386-0.403 0.544-0.923 0.94-1.58 1.12-0.842 0.23-1.868 0.14-2.627-0.306-0.665-0.392-1.142-1.038-1.322-1.788-0.224-0.903-0.099-1.89 0.391-2.684 0.472-0.765 1.135-1.144 1.992-1.348zM31.517 16.663c0.809-0.006 1.618-0.009 2.427-0.007l1.513 0.001c-0.148-0.621-0.295-1.196-0.873-1.559-0.423-0.266-0.935-0.306-1.421-0.266-0.525 0.121-0.968 0.36-1.268 0.823-0.203 0.313-0.293 0.65-0.378 1.008z"></path>
<path d="M53.316 13.939c0.147-0.007 0.294-0.012 0.44-0.015 0.783-0.008 1.565 0.224 2.124 0.795 0.735 0.752 0.803 1.711 0.799 2.703-1.627 0.025-3.257 0.005-4.885 0.009 0.022 0.297 0.073 0.552 0.212 0.819 0.256 0.494 0.682 0.821 1.213 0.977 0.711 0.209 1.357 0.055 1.984-0.294 0.153-0.106 0.29-0.235 0.429-0.358 0.258 0.139 0.52 0.251 0.791 0.359-0.425 0.559-0.954 0.964-1.642 1.139-0.855 0.217-1.836 0.134-2.598-0.327-0.677-0.409-1.141-1.082-1.319-1.85-0.203-0.876-0.061-1.884 0.428-2.644s1.16-1.127 2.023-1.314zM51.785 16.661c0.775-0.002 1.55-0.013 2.325-0.005l1.641-0.001c-0.17-0.638-0.349-1.26-0.966-1.611-0.382-0.218-0.848-0.255-1.28-0.211-0.512 0.085-0.945 0.278-1.263 0.706-0.252 0.339-0.359 0.718-0.456 1.122z"></path>
<path d="M70.209 14.025c0.991-0.046 1.996-0.013 2.989-0.010-0.051 1.984-0.006 3.981-0.006 5.967l-1.021-0.011-0.001-2.038c-0.487-0.003-1.13-0.098-1.595 0.012-0.145 0.034-0.171 0.108-0.252 0.221-0.344 0.611-0.728 1.201-1.073 1.812-0.386 0.009-0.772 0.010-1.158 0.003 0.377-0.709 0.89-1.611 1.39-2.225-0.060-0.029-0.119-0.060-0.176-0.091-0.436-0.241-0.77-0.628-0.897-1.113-0.133-0.506-0.060-1.084 0.21-1.533 0.365-0.606 0.936-0.839 1.591-0.993zM71.256 17.077c0.302-0.003 0.609 0.007 0.91-0.015-0.004-0.706-0.002-1.411 0.006-2.117-0.599-0.002-1.206-0.018-1.803 0.015-0.377 0.118-0.672 0.246-0.875 0.609-0.135 0.242-0.171 0.561-0.080 0.823 0.088 0.254 0.292 0.433 0.532 0.541 0.405 0.183 0.877 0.147 1.311 0.143z"></path>
<path d="M45.494 14.080c1.293-0.047 2.597-0.016 3.891-0.019l-0.006 5.92c-0.323-0.005-0.646-0.018-0.966 0.026l-0.005-5.015-0.549 0.022c-0.49-0.024-0.99 0.008-1.48 0.020-0.014 1.193-0.018 3.667-0.854 4.551-0.417 0.44-0.888 0.485-1.457 0.49-0.004-0.311-0.021-0.619-0.043-0.929 0.149-0.014 0.306-0.024 0.451-0.060 0.9-0.227 0.916-3.2 0.938-3.95 0.009-0.292-0.056-0.817 0.081-1.055z"></path>
<path d="M66.461 14.036l0.133-0.008c0.016 0.022 0.038 0.039 0.048 0.065 0.044 0.116-0.001 5.288-0.001 5.886l-0.867 0.006-0.064-0.013c-0.139-0.251 0-5.179-0.043-5.924 0.265 0.003 0.53-0.006 0.794-0.012z"></path>
<path d="M65.649 11.803l0.997-0.003c-0.011 0.354-0.003 0.708 0.003 1.062l-1.027 0.008c0.015-0.355 0.024-0.711 0.027-1.067z"></path>
</symbol>
</defs>
</svg>
