<svg aria-hidden="true" style="position: absolute; width: 0; height: 0; overflow: hidden;" version="1.1" xmlns="http://www.w3.org/2000/svg" xmlns:xlink="http://www.w3.org/1999/xlink">
<defs>
<symbol id="icon-half-star" viewBox="0 0 32 32">
<path d="M31.829 11.907l0.128 0.421c0.105 0.318 0.017 0.671-0.223 0.893l-7.755 6.989 2.298 10.476c0.078 0.335-0.042 0.686-0.303 0.893l-0.351 0.253c-0.136 0.113-0.305 0.172-0.479 0.168-0.146 0.003-0.29-0.038-0.415-0.118l-8.728-5.608-8.68 5.608c-0.125 0.080-0.269 0.121-0.415 0.118-0.173 0.004-0.342-0.056-0.479-0.168l-0.399-0.253c-0.262-0.206-0.381-0.558-0.303-0.893l2.298-10.476-7.739-6.973c-0.252-0.22-0.348-0.583-0.239-0.909l0.176-0.421c0.093-0.333 0.374-0.568 0.702-0.589l10.196-0.859 3.909-9.92c0.125-0.329 0.43-0.544 0.766-0.539h0.415c0.333-0.007 0.634 0.209 0.75 0.539l3.973 9.92 10.196 0.859c0.328 0.021 0.609 0.257 0.702 0.589zM22.574 27.048l-1.787-7.882 5.856-5.271-7.675-0.64-2.968-7.511v17.078l6.574 4.227z"></path>
</symbol>
<symbol id="icon-left-arrow-alt" viewBox="0 0 32 32">
<path d="M16.943 23.057l-5.724-5.724h12.781v-2.667h-12.781l5.724-5.724-1.885-1.885-8.943 8.943 8.943 8.943 1.885-1.885z"></path>
</symbol>
<symbol id="icon-right-arrow-alt" viewBox="0 0 32 32">
<path d="M15.057 23.057l1.885 1.885 8.943-8.943-8.943-8.943-1.885 1.885 5.724 5.724h-12.781v2.667h12.781l-5.724 5.724z"></path>
</symbol>
<symbol id="icon-star" viewBox="0 0 32 32">
<path d="M14.513 1.037c0.55-1.383 2.423-1.383 2.973 0l3.246 8.164c0.232 0.583 0.756 0.982 1.358 1.032l8.426 0.707c1.428 0.12 2.006 1.983 0.919 2.958l-6.419 5.752c-0.458 0.411-0.659 1.056-0.519 1.67l1.961 8.6c0.332 1.457-1.183 2.609-2.405 1.828l-7.213-4.609c-0.515-0.329-1.163-0.329-1.679 0l-7.214 4.609c-1.222 0.781-2.738-0.371-2.405-1.828l1.961-8.6c0.14-0.614-0.060-1.259-0.519-1.67l-6.42-5.752c-1.088-0.975-0.509-2.838 0.919-2.958l8.426-0.707c0.602-0.050 1.126-0.449 1.358-1.032l3.246-8.164z"></path>
</symbol>
<symbol id="icon-star-empty" viewBox="0 0 32 32">
<path d="M32 12.408l-11.056-1.607-4.944-10.018-4.944 10.018-11.056 1.607 8 7.798-1.889 11.011 9.889-5.199 9.889 5.199-1.889-11.011 8-7.798zM16 23.547l-6.983 3.671 1.334-7.776-5.65-5.507 7.808-1.134 3.492-7.075 3.492 7.075 7.807 1.134-5.65 5.507 1.334 7.776-6.983-3.671z"></path>
</symbol>
</defs>
</svg>
